<?xml version="1.0" encoding="UTF-8" standalone="no"?>
<!DOCTYPE svg PUBLIC "-//W3C//DTD SVG 1.1//EN"
 "http://www.w3.org/Graphics/SVG/1.1/DTD/svg11.dtd">
<!-- Generated by graphviz version 2.40.1 (20161225.0304)
 -->
<!-- Title: dependencies Pages: 1 -->
<svg width="504pt" height="211pt"
 viewBox="0.00 0.00 504.00 211.00" xmlns="http://www.w3.org/2000/svg" xmlns:xlink="http://www.w3.org/1999/xlink">
<g id="graph0" class="graph" transform="scale(1 1) rotate(0) translate(4 207)">
<title>dependencies</title>
<polygon fill="#ffffff" stroke="transparent" points="-4,4 -4,-207 500,-207 500,4 -4,4"/>
<text text-anchor="start" x="227.0091" y="-42.4" font-family="sans-serif" font-weight="bold" font-size="14.00" fill="#000000">Legend</text>
<polygon fill="#ffffb3" stroke="transparent" points="14,-10 14,-30 34,-30 34,-10 14,-10"/>
<text text-anchor="start" x="37.629" y="-15.4" font-family="sans-serif" font-size="14.00" fill="#000000"> &#160;Declarations</text>
<polygon fill="#8dd3c7" stroke="transparent" points="127,-10 127,-30 147,-30 147,-10 127,-10"/>
<text text-anchor="start" x="150.7251" y="-15.4" font-family="sans-serif" font-size="14.00" fill="#000000"> &#160;Module</text>
<polygon fill="#80b1d3" stroke="transparent" points="213,-10 213,-30 233,-30 233,-10 213,-10"/>
<text text-anchor="start" x="236.7812" y="-15.4" font-family="sans-serif" font-size="14.00" fill="#000000"> &#160;Bootstrap</text>
<polygon fill="#fdb462" stroke="transparent" points="310,-10 310,-30 330,-30 330,-10 310,-10"/>
<text text-anchor="start" x="333.6732" y="-15.4" font-family="sans-serif" font-size="14.00" fill="#000000"> &#160;Providers</text>
<polygon fill="#fb8072" stroke="transparent" points="406,-10 406,-30 426,-30 426,-10 406,-10"/>
<text text-anchor="start" x="429.7258" y="-15.4" font-family="sans-serif" font-size="14.00" fill="#000000"> &#160;Exports</text>
<g id="clust1" class="cluster">
<title>cluster_DespliegueContinuoModule</title>
<polygon fill="none" stroke="#000000" stroke-dasharray="1,5" points="15,-70 15,-195 481,-195 481,-70 15,-70"/>
</g>
<g id="clust2" class="cluster">
<title>cluster_DespliegueContinuoModule_declarations</title>
<polygon fill="none" stroke="#000000" points="267,-78 267,-130 473,-130 473,-78 267,-78"/>
</g>
<g id="clust4" class="cluster">
<title>cluster_DespliegueContinuoModule_imports</title>
<polygon fill="none" stroke="#000000" points="23,-78 23,-130 259,-130 259,-78 23,-78"/>
</g>
<!-- DespliegeContinuoComponent -->
<g id="node1" class="node">
<title>DespliegeContinuoComponent</title>
<polygon fill="#ffffb3" stroke="#000000" points="464.9269,-122 275.0731,-122 275.0731,-86 464.9269,-86 464.9269,-122"/>
<text text-anchor="middle" x="370" y="-99.8" font-family="Times,serif" font-size="14.00" fill="#000000">DespliegeContinuoComponent</text>
</g>
<!-- DespliegueContinuoModule -->
<g id="node2" class="node">
<title>DespliegueContinuoModule</title>
<polygon fill="#8dd3c7" stroke="#000000" points="342.1442,-187 339.1442,-191 318.1442,-191 315.1442,-187 167.8558,-187 167.8558,-151 342.1442,-151 342.1442,-187"/>
<text text-anchor="middle" x="255" y="-164.8" font-family="Times,serif" font-size="14.00" fill="#000000">DespliegueContinuoModule</text>
</g>
<!-- DespliegeContinuoComponent&#45;&gt;DespliegueContinuoModule -->
<g id="edge1" class="edge">
<title>DespliegeContinuoComponent&#45;&gt;DespliegueContinuoModule</title>
<path fill="none" stroke="#000000" d="M308.8044,-122.1061C308.8044,-122.1061 308.8044,-140.991 308.8044,-140.991"/>
<polygon fill="#000000" stroke="#000000" points="305.3044,-140.9909 308.8044,-150.991 312.3044,-140.991 305.3044,-140.9909"/>
</g>
<!-- DespliegueContinuoRoutingModule -->
<g id="node3" class="node">
<title>DespliegueContinuoRoutingModule</title>
<polygon fill="#8dd3c7" stroke="#000000" points="250.7617,-122 247.7617,-126 226.7617,-126 223.7617,-122 31.2383,-122 31.2383,-86 250.7617,-86 250.7617,-122"/>
<text text-anchor="middle" x="141" y="-99.8" font-family="Times,serif" font-size="14.00" fill="#000000">DespliegueContinuoRoutingModule</text>
</g>
<!-- DespliegueContinuoRoutingModule&#45;&gt;DespliegueContinuoModule -->
<g id="edge2" class="edge">
<title>DespliegueContinuoRoutingModule&#45;&gt;DespliegueContinuoModule</title>
<path fill="none" stroke="#000000" d="M209.2795,-122.1061C209.2795,-122.1061 209.2795,-140.991 209.2795,-140.991"/>
<polygon fill="#000000" stroke="#000000" points="205.7795,-140.9909 209.2795,-150.991 212.7795,-140.991 205.7795,-140.9909"/>
</g>
</g>
</svg>
