<?xml version="1.0" encoding="UTF-8" standalone="no"?>
<!DOCTYPE svg PUBLIC "-//W3C//DTD SVG 1.1//EN"
 "http://www.w3.org/Graphics/SVG/1.1/DTD/svg11.dtd">
<!-- Generated by graphviz version 2.40.1 (20161225.0304)
 -->
<!-- Title: dependencies Pages: 1 -->
<svg width="628pt" height="211pt"
 viewBox="0.00 0.00 628.00 211.00" xmlns="http://www.w3.org/2000/svg" xmlns:xlink="http://www.w3.org/1999/xlink">
<g id="graph0" class="graph" transform="scale(1 1) rotate(0) translate(4 207)">
<title>dependencies</title>
<polygon fill="#ffffff" stroke="transparent" points="-4,4 -4,-207 624,-207 624,4 -4,4"/>
<text text-anchor="start" x="289.0091" y="-42.4" font-family="sans-serif" font-weight="bold" font-size="14.00" fill="#000000">Legend</text>
<polygon fill="#ffffb3" stroke="transparent" points="76,-10 76,-30 96,-30 96,-10 76,-10"/>
<text text-anchor="start" x="99.629" y="-15.4" font-family="sans-serif" font-size="14.00" fill="#000000"> &#160;Declarations</text>
<polygon fill="#8dd3c7" stroke="transparent" points="189,-10 189,-30 209,-30 209,-10 189,-10"/>
<text text-anchor="start" x="212.7251" y="-15.4" font-family="sans-serif" font-size="14.00" fill="#000000"> &#160;Module</text>
<polygon fill="#80b1d3" stroke="transparent" points="275,-10 275,-30 295,-30 295,-10 275,-10"/>
<text text-anchor="start" x="298.7812" y="-15.4" font-family="sans-serif" font-size="14.00" fill="#000000"> &#160;Bootstrap</text>
<polygon fill="#fdb462" stroke="transparent" points="372,-10 372,-30 392,-30 392,-10 372,-10"/>
<text text-anchor="start" x="395.6732" y="-15.4" font-family="sans-serif" font-size="14.00" fill="#000000"> &#160;Providers</text>
<polygon fill="#fb8072" stroke="transparent" points="468,-10 468,-30 488,-30 488,-10 468,-10"/>
<text text-anchor="start" x="491.7258" y="-15.4" font-family="sans-serif" font-size="14.00" fill="#000000"> &#160;Exports</text>
<g id="clust1" class="cluster">
<title>cluster_IntegracionContinuaModule</title>
<polygon fill="none" stroke="#000000" stroke-dasharray="1,5" points="8,-70 8,-195 612,-195 612,-70 8,-70"/>
</g>
<g id="clust2" class="cluster">
<title>cluster_IntegracionContinuaModule_declarations</title>
<polygon fill="none" stroke="#000000" points="260,-78 260,-130 604,-130 604,-78 260,-78"/>
</g>
<g id="clust5" class="cluster">
<title>cluster_IntegracionContinuaModule_imports</title>
<polygon fill="none" stroke="#000000" points="16,-78 16,-130 252,-130 252,-78 16,-78"/>
</g>
<!-- IntegracionContinuaComponent -->
<g id="node1" class="node">
<title>IntegracionContinuaComponent</title>
<polygon fill="#ffffb3" stroke="#000000" points="596.4114,-122 399.5886,-122 399.5886,-86 596.4114,-86 596.4114,-122"/>
<text text-anchor="middle" x="498" y="-99.8" font-family="Times,serif" font-size="14.00" fill="#000000">IntegracionContinuaComponent</text>
</g>
<!-- IntegracionContinuaModule -->
<g id="node3" class="node">
<title>IntegracionContinuaModule</title>
<polygon fill="#8dd3c7" stroke="#000000" points="412.1288,-187 409.1288,-191 388.1288,-191 385.1288,-187 237.8712,-187 237.8712,-151 412.1288,-151 412.1288,-187"/>
<text text-anchor="middle" x="325" y="-164.8" font-family="Times,serif" font-size="14.00" fill="#000000">IntegracionContinuaModule</text>
</g>
<!-- IntegracionContinuaComponent&#45;&gt;IntegracionContinuaModule -->
<g id="edge1" class="edge">
<title>IntegracionContinuaComponent&#45;&gt;IntegracionContinuaModule</title>
<path fill="none" stroke="#000000" d="M406.0544,-122.1061C406.0544,-122.1061 406.0544,-140.991 406.0544,-140.991"/>
<polygon fill="#000000" stroke="#000000" points="402.5544,-140.9909 406.0544,-150.991 409.5544,-140.991 402.5544,-140.9909"/>
</g>
<!-- MenuComponent -->
<g id="node2" class="node">
<title>MenuComponent</title>
<polygon fill="#ffffb3" stroke="#000000" points="381.9916,-122 268.0084,-122 268.0084,-86 381.9916,-86 381.9916,-122"/>
<text text-anchor="middle" x="325" y="-99.8" font-family="Times,serif" font-size="14.00" fill="#000000">MenuComponent</text>
</g>
<!-- MenuComponent&#45;&gt;IntegracionContinuaModule -->
<g id="edge2" class="edge">
<title>MenuComponent&#45;&gt;IntegracionContinuaModule</title>
<path fill="none" stroke="#000000" d="M325,-122.1061C325,-122.1061 325,-140.991 325,-140.991"/>
<polygon fill="#000000" stroke="#000000" points="321.5001,-140.9909 325,-150.991 328.5001,-140.991 321.5001,-140.9909"/>
</g>
<!-- IntegracionContinuaRoutingModule -->
<g id="node4" class="node">
<title>IntegracionContinuaRoutingModule</title>
<polygon fill="#8dd3c7" stroke="#000000" points="243.7463,-122 240.7463,-126 219.7463,-126 216.7463,-122 24.2537,-122 24.2537,-86 243.7463,-86 243.7463,-122"/>
<text text-anchor="middle" x="134" y="-99.8" font-family="Times,serif" font-size="14.00" fill="#000000">IntegracionContinuaRoutingModule</text>
</g>
<!-- IntegracionContinuaRoutingModule&#45;&gt;IntegracionContinuaModule -->
<g id="edge3" class="edge">
<title>IntegracionContinuaRoutingModule&#45;&gt;IntegracionContinuaModule</title>
<path fill="none" stroke="#000000" d="M243.8009,-104C251.2871,-104 255.9387,-104 255.9387,-104 255.9387,-104 255.9387,-140.8939 255.9387,-140.8939"/>
<polygon fill="#000000" stroke="#000000" points="252.4387,-140.8938 255.9387,-150.8939 259.4387,-140.8939 252.4387,-140.8938"/>
</g>
</g>
</svg>
